<svg id="Ebene_1" data-name="Ebene 1" xmlns="http://www.w3.org/2000/svg" viewBox="0 0 36.94 289.06"><defs><style>.cls-1{fill:#fff;}.cls-2{fill:#3d3d3d;}</style></defs><title>Elektroooden-Illus</title><path class="cls-1" d="M35.94,18.56v252a17.5,17.5,0,0,1-35,0v-252a17.5,17.5,0,1,1,35,0Z"/><path class="cls-2" d="M18.44.06A18.52,18.52,0,0,0-.06,18.56v252a18.5,18.5,0,0,0,37,0v-252A18.52,18.52,0,0,0,18.44.06Zm17.5,270.5a17.5,17.5,0,0,1-35,0v-252a17.5,17.5,0,1,1,35,0Z"/><rect class="cls-2" x="-0.06" y="36.62" width="37" height="36"/><rect class="cls-2" x="-0.06" y="108.63" width="12.5" height="36"/><rect class="cls-2" x="24.43" y="108.63" width="12.5" height="36"/><rect class="cls-2" x="-0.06" y="180.63" width="12.5" height="36"/><rect class="cls-2" x="24.43" y="180.63" width="12.5" height="36"/><path class="cls-2" d="M.4,252.63h36a.47.47,0,0,1,.47.47v17.5A18.47,18.47,0,0,1,18.4,289.06h0A18.47,18.47,0,0,1-.06,270.6v-17.5a.47.47,0,0,1,.47-.47Z"/></svg>