<svg id="Ebene_1" data-name="Ebene 1" xmlns="http://www.w3.org/2000/svg" viewBox="0 0 60 300"><defs><style>.cls-1{fill:#fff;}.cls-2{fill:#3d3d3d;}</style></defs><title>Elektroooden-02</title><path class="cls-1" d="M47.39,23.82v252a17.5,17.5,0,0,1-35,0v-252a17.5,17.5,0,1,1,35,0Z"/><path class="cls-2" d="M29.89,5.32a18.52,18.52,0,0,0-18.5,18.5v252a18.5,18.5,0,0,0,37,0v-252A18.52,18.52,0,0,0,29.89,5.32Zm17.5,270.5a17.5,17.5,0,0,1-35,0v-252a17.5,17.5,0,1,1,35,0Z"/><rect class="cls-2" x="11.39" y="41.88" width="37" height="36"/><rect class="cls-2" x="11.39" y="113.88" width="12.5" height="36"/><rect class="cls-2" x="35.89" y="113.88" width="12.5" height="36"/><rect class="cls-2" x="11.39" y="185.88" width="12.5" height="36"/><rect class="cls-2" x="35.89" y="185.88" width="12.5" height="36"/><path class="cls-2" d="M11.86,257.88h36a.47.47,0,0,1,.47.47v17.5a18.47,18.47,0,0,1-18.47,18.47h0a18.47,18.47,0,0,1-18.47-18.47v-17.5a.47.47,0,0,1,.47-.47Z"/></svg>