<svg id="Ebene_1" data-name="Ebene 1" xmlns="http://www.w3.org/2000/svg" viewBox="0 0 33.69 229.18"><defs><style>.cls-1{fill:#fff;stroke:#3d3d3d;stroke-miterlimit:10;}.cls-2{fill:#3d3d3d;}</style></defs><title>elektrode</title><rect class="cls-1" x="2.73" y="2.41" width="28" height="224" rx="14" ry="14"/><rect class="cls-2" x="2.73" y="30.41" width="28" height="28"/><rect class="cls-2" x="2.73" y="86.41" width="9.33" height="28"/><rect class="cls-2" x="21.4" y="86.41" width="9.33" height="28"/><rect class="cls-2" x="2.73" y="142.77" width="9.33" height="28"/><rect class="cls-2" x="21.4" y="142.77" width="9.33" height="28"/><path class="cls-2" d="M2.73,198.77h28a0,0,0,0,1,0,0v14a14,14,0,0,1-14,14h0a14,14,0,0,1-14-14v-14a0,0,0,0,1,0,0Z"/></svg>